<svg width="24" height="24" viewBox="0 0 24 24" fill="none" xmlns="http://www.w3.org/2000/svg">
<path d="M18.1724 13.2115H13.2104V18.1735H10.7874V13.2115H5.82642V10.7885H10.7884V5.82749H13.2114V10.7895H18.1734L18.1724 13.2115Z" fill="white"/>
<path fill-rule="evenodd" clip-rule="evenodd" d="M4.49469e-09 12.0003C-0.000179426 5.37316 5.37186 0.00053841 11.999 3.96306e-08H12C15.1828 -0.000258459 18.2354 1.26407 20.4859 3.51478C22.7364 5.76548 24.0005 8.81813 24 12.001C23.9995 18.6281 18.6268 24.0002 11.9997 24C5.37251 23.9998 0.000179435 18.6275 4.49469e-09 12.0003ZM21.3854 10.1317C20.4961 5.65249 16.5667 2.42512 12.0001 2.42298H11.9991C9.45811 2.41818 7.02021 3.42751 5.22623 5.22708C1.99723 8.45627 1.49866 13.5166 4.03538 17.3139C6.57211 21.1111 11.4378 22.5879 15.6572 20.8413C19.8766 19.0946 22.2748 14.6109 21.3854 10.1317Z" fill="white"/>
</svg>
