<svg width="50" height="50" viewBox="0 0 50 50" fill="none" xmlns="http://www.w3.org/2000/svg">
<path fill-rule="evenodd" clip-rule="evenodd" d="M15.2686 48.0366C18.347 49.3396 21.6568 50.0074 24.9996 49.9999C28.3426 50.0077 31.6528 49.3399 34.7314 48.0366C37.7013 46.7811 40.4001 44.9625 42.6786 42.681C44.9606 40.4028 46.7796 37.7039 48.035 34.7337C49.3379 31.6552 50.0062 28.3454 50 25.0025C50.0064 21.6594 49.338 18.3493 48.035 15.2706C46.7805 12.2998 44.9615 9.60079 42.6786 7.32319C40.4014 5.03948 37.7024 3.21976 34.7314 1.96509C31.6529 0.661238 28.3428 -0.00714621 24.9996 5.76171e-05C21.6567 -0.00703207 18.3468 0.661349 15.2686 1.96509C12.2977 3.2194 9.59884 5.03917 7.32221 7.32319C5.03842 9.60034 3.21872 12.2995 1.9642 15.2706C0.661488 18.3494 -0.0065621 21.6594 4.8586e-05 25.0025C-0.00637842 28.3453 0.661666 31.6551 1.9642 34.7337C3.21961 37.7043 5.0392 40.4032 7.32221 42.681C9.6004 44.9625 12.2989 46.7812 15.2686 48.0366ZM19.9252 19.5657C19.9271 18.7648 20.5761 18.1162 21.377 18.1148C21.6314 18.1145 21.8812 18.1827 22.1003 18.3121L31.5264 23.7693C31.9765 24.0259 32.2531 24.5056 32.2497 25.0237C32.253 25.5414 31.9764 26.0205 31.5264 26.2764L22.1003 31.7362C21.8808 31.8647 21.6313 31.9328 21.377 31.9335C20.5751 31.9321 19.9257 31.2819 19.9252 30.4801V19.5657Z" fill="white"/>
</svg>
