<svg width="24" height="24" viewBox="0 0 24 24" fill="none" xmlns="http://www.w3.org/2000/svg">
<path d="M23.2613 0.0134005L7.80668 2.32023C7.48554 2.34036 7.22949 2.53494 7.19931 2.7818V16.6306C7.20422 16.8627 7.14302 17.0929 7.02 17.3049C6.76074 17.6633 6.32613 17.9271 5.81283 18.0376C5.56028 18.1008 5.22818 18.1591 4.83042 18.2319C3.02472 18.5439 0.0029962 19.0744 0.0029962 21.2199C-0.0729335 22.6287 1.3031 23.8348 3.12826 23.9592C3.30393 23.9828 3.48161 23.9964 3.65987 24C4.99552 23.9624 6.3047 23.7025 7.49732 23.2382C8.69135 22.6303 9.37826 21.5816 9.30302 20.4814V8.22044C9.3025 8.00145 9.50364 7.81285 9.78286 7.77054L21.1752 6.00009C21.3512 5.97245 21.534 6.00693 21.6734 6.09406C21.8128 6.18119 21.8941 6.3118 21.895 6.44999V14.0002C21.9154 14.2671 21.8512 14.5339 21.7081 14.7775C21.4475 15.1374 21.0097 15.4015 20.4934 15.5102C20.2408 15.5734 19.8342 15.6317 19.4365 15.7045C17.6307 16.0165 14.609 16.5412 14.609 18.6867C14.5095 20.1121 15.8976 21.3411 17.7457 21.4638C18.2315 21.4908 18.7198 21.4735 19.2003 21.4123C20.1611 21.2836 21.0865 21.0299 21.9367 20.6622C23.2531 20.1112 24.0512 19.0346 23.9974 17.8821V0.457471C23.9978 0.316876 23.9139 0.184009 23.7701 0.0972724C23.6263 0.0105358 23.4386 -0.0204023 23.2613 0.0134005Z" fill="white"/>
</svg>
