<svg width="24" height="24" viewBox="0 0 24 24" fill="none" xmlns="http://www.w3.org/2000/svg">
<path d="M12 0C8.02333 0 4.79958 2.83349 4.79958 6.32878C4.79958 9.82406 8.02333 12.6576 12 12.6576C15.9767 12.6576 19.2004 9.82406 19.2004 6.32878C19.1962 2.83504 15.9749 0.00375008 12 0Z" fill="white"/>
<path d="M20.9588 16.7915C19.0261 15.0466 16.373 14.0626 13.6024 14.0631H10.3953C7.62399 14.0621 4.96995 15.0461 3.03678 16.7915C1.08673 18.5225 -0.0049747 20.8612 1.70432e-05 23.2972C1.70432e-05 23.6853 0.35799 24 0.799573 24H23.2004C23.642 24 24 23.6853 24 23.2972C24.0038 20.8607 22.9104 18.5218 20.9588 16.7915Z" fill="white"/>
</svg>
