<svg width="24" height="24" viewBox="0 0 24 24" fill="none" xmlns="http://www.w3.org/2000/svg">
<path fill-rule="evenodd" clip-rule="evenodd" d="M3 5C3 5.55228 3.44772 6 4 6H21C21.5523 6 22 5.55228 22 5C22 4.44772 21.5523 4 21 4H4C3.44772 4 3 4.44772 3 5ZM4 13C3.44772 13 3 12.5523 3 12C3 11.4477 3.44772 11 4 11H21C21.5523 11 22 11.4477 22 12C22 12.5523 21.5523 13 21 13H4ZM4 20C3.44772 20 3 19.5523 3 19C3 18.4477 3.44772 18 4 18H21C21.5523 18 22 18.4477 22 19C22 19.5523 21.5523 20 21 20H4Z" fill="white"/>
</svg>
