<svg width="24" height="24" viewBox="0 0 24 24" fill="none" xmlns="http://www.w3.org/2000/svg">
<path d="M13.6399 12L18.5938 7.04611C18.9986 6.58616 18.9758 5.89077 18.5419 5.45823C18.108 5.02569 17.4126 5.00515 16.9539 5.41133L12 10.3652L7.04611 5.41133C6.76361 5.07703 6.317 4.93019 5.89124 5.03162C5.46548 5.13305 5.13305 5.46548 5.03162 5.89124C4.93019 6.317 5.07703 6.76361 5.41133 7.04611L10.3652 12L5.41133 16.9539C5.0221 17.4145 5.05069 18.0965 5.4771 18.5229C5.90351 18.9493 6.58551 18.9779 7.04611 18.5887L12 13.6348L16.9539 18.5887C17.2364 18.923 17.683 19.0698 18.1088 18.9684C18.5345 18.867 18.867 18.5345 18.9684 18.1088C19.0698 17.683 18.923 17.2364 18.5887 16.9539L13.6399 12Z" fill="white"/>
</svg>
