<svg width="24" height="24" viewBox="0 0 24 24" fill="none" xmlns="http://www.w3.org/2000/svg">
<path d="M8.34179 19.2023V3.84251L22.5202 1.47978V16.8396M8.34179 19.2023C8.34179 21.1595 6.75524 22.7462 4.79802 22.7464C2.84079 22.7466 1.25394 21.1602 1.25358 19.203C1.25321 17.2458 2.83945 15.6588 4.79668 15.6582C5.73681 15.6579 6.63853 16.0312 7.30339 16.6959C7.96826 17.3606 8.34179 18.2622 8.34179 19.2023ZM22.5202 16.8386C22.5202 18.7958 20.9337 20.3825 18.9765 20.3827C17.0192 20.3829 15.4324 18.7965 15.432 16.8392C15.4316 14.882 17.0179 13.295 18.9751 13.2945C19.9153 13.2942 20.817 13.6675 21.4818 14.3322C22.1467 14.9968 22.5202 15.8984 22.5202 16.8386Z" stroke="#8C8C8C" stroke-width="2.5" stroke-linecap="round"/>
</svg>
