<svg width="24" height="24" viewBox="0 0 24 24" fill="none" xmlns="http://www.w3.org/2000/svg">
<path d="M0.231353 1.42155L1.67308 2.8956C0.581681 4.15716 -0.0142304 5.78719 0.000258118 7.47138C0.000258118 12.159 4.07819 15.9219 10.255 21.7238L12.0029 23.3213L13.7442 21.717C14.9321 20.6027 16.0457 19.5584 17.0604 18.5744L22.3794 24L23.7631 22.5853L1.62648 0L0.231353 1.42155Z" fill="white"/>
<path d="M23.9991 7.46555C24.0303 5.66307 23.3465 3.92444 22.1035 2.64586C20.8604 1.36727 19.1641 0.657647 17.401 0.678693C15.3169 0.689071 13.3427 1.63557 12.0021 3.26703C10.6617 1.63582 8.6879 0.689356 6.60418 0.678693C6.13323 0.679318 5.66356 0.728836 5.20239 0.826487L19.8384 15.7498C22.4585 12.8795 23.9991 10.3495 23.9991 7.46555Z" fill="white"/>
</svg>
