<svg width="24" height="24" viewBox="0 0 24 24" fill="none" xmlns="http://www.w3.org/2000/svg">
<path fill-rule="evenodd" clip-rule="evenodd" d="M21.6 0H7.2C5.8761 0.00380513 4.8038 1.0761 4.8 2.4V16.8C4.8038 18.1239 5.8761 19.1962 7.2 19.2H21.6C22.9239 19.1962 23.9962 18.1239 24 16.8V2.4C23.9962 1.0761 22.9239 0.00380513 21.6 0ZM19.2 6.00049H15.6005V12.6007C15.5999 14.2572 14.2569 15.5997 12.6004 15.5995C10.944 15.5993 9.60117 14.2565 9.60099 12.6001C9.60081 10.9436 10.9433 9.60055 12.5998 9.6C13.2511 9.59858 13.8844 9.81374 14.4 10.2116V3.59951H19.2V6.00049ZM0 4.8H2.4V21.6H19.2V24H2.4C1.0761 23.9962 0.00380513 22.9239 0 21.6V4.8Z" fill="white"/>
</svg>
