<svg width="14" height="14" viewBox="0 0 14 14" fill="none" xmlns="http://www.w3.org/2000/svg">
<path fill-rule="evenodd" clip-rule="evenodd" d="M2.33316 14C1.04645 13.9955 0.0044678 12.9536 0 11.6668V2.33316C0.0044678 1.04645 1.04645 0.0044678 2.33316 0H11.6668C12.9536 0.0044678 13.9955 1.04645 14 2.33316V11.6668C13.9955 12.9536 12.9536 13.9955 11.6668 14H2.33316ZM1.29688 2.85029V11.1467C1.29687 12.0052 1.9917 12.7019 2.85028 12.7041H11.1467C12.0052 12.703 12.701 12.0073 12.7021 11.1487V2.85029C12.701 1.99171 12.0052 1.29597 11.1467 1.29485H2.85028C1.99249 1.29709 1.29799 1.9925 1.29688 2.85029ZM4.40796 3.11088V11.0367L9.72069 11.0377V9.72559H6.04077V7.60212H9.18015V6.32255H6.04484V4.43423H9.70949V3.11088H4.40796Z" fill="white"/>
</svg>
